[img]http://img685.imageshack.us/img685/1732/thedouble.jpg[/img]
[code]
The Double 2011 DVDSCR XviD AC3-26K

Imdb: 
http://www.imdb.com/title/tt1646980/

Plot:
A retired CIA operative is paired with a young FBI agent to unravel the mystery of a senator's murder, 

with all signs pointing to a Soviet assassin.

Sources:
TO WHOEVER GOT THE SOURCE OUT :)

Notes:
no dvdr out yet .. the so called encoded video as bad bitrate... take this or leave it :)
added few filters to the video to make it look nice as much as possible :)


Greetz:
Xtreme Encode|FYA|ILLUMANTI|CM8|RX|VISION|HDSCENE|NIGHTMAREZ|xTriLL|DTRG|CRYS|REMIXHD|BIDA|RX|REFILL| 

INSPiRAL|SIC
To all the people who have helped me :P you know who you are

Anything to offer email us @: 26k@hushmail.me

Video
ID                                       : 0
Format                                   : MPEG-4 Visual
Format profile                           : Advanced Simple@L5
Format settings, BVOP                    : 2
Format settings, QPel                    : No
Format settings, GMC                     : No warppoints
Format settings, Matrix                  : Default (H.263)
Codec ID                                 : XVID
Codec ID/Hint                            : XviD
Duration                                 : 1h 34mn
Bit rate                                 : 1 600 Kbps
Width                                    : 720 pixels
Height                                   : 304 pixels
Display aspect ratio                     : 2.35:1
Frame rate                               : 23.976 fps
Color space                              : YUV
Chroma subsampling                       : 4:2:0
Bit depth                                : 8 bits
Scan type                                : Progressive
Compression mode                         : Lossy
Bits/(Pixel*Frame)                       : 0.305
Stream size                              : 1.06 GiB (89%)
Writing library                          : XviD 63

Audio
ID                                       : 1
Format                                   : AC-3
Format/Info                              : Audio Coding 3
Mode extension                           : CM (complete main)
Codec ID                                 : 2000
Duration                                 : 1h 34mn
Bit rate mode                            : Constant
Bit rate                                 : 192 Kbps
Channel(s)                               : 2 channels
Channel positions                        : Front: L R
Sampling rate                            : 48.0 KHz
Bit depth                                : 16 bits
Compression mode                         : Lossy
Stream size                              : 130 MiB (11%)
Alignment                                : Aligned on interleaves
Interleave, duration                     : 42 ms (1.00 video frame)

[/code]
Screens:
[img]http://img832.imageshack.us/img832/8638/vlcsnap2012010920h33m41.png[/img]
[img]http://img855.imageshack.us/img855/1355/vlcsnap2012010920h33m57.png[/img]
[img]http://img38.imageshack.us/img38/610/vlcsnap2012010920h34m03.png[/img]

[img]http://img851.imageshack.us/img851/5503/26ks.jpg[/img]#
Thank you smallz for banner!